<svg xmlns="http://www.w3.org/2000/svg" width="1200" height="630" viewBox="0 0 1200 630">
  <defs>
    <linearGradient id="heroBg2" x1="0%" y1="0%" x2="100%" y2="100%">
      <stop offset="0%" style="stop-color:#7b68ee;stop-opacity:1" />
      <stop offset="40%" style="stop-color:#9370db;stop-opacity:1" />
      <stop offset="100%" style="stop-color:#ba55d3;stop-opacity:1" />
    </linearGradient>
    <filter id="sketch">
      <feTurbulence baseFrequency="0.05" numOctaves="2" result="turbulence"/>
      <feDisplacementMap in2="turbulence" in="SourceGraphic" scale="2" xChannelSelector="R" yChannelSelector="G"/>
    </filter>
  </defs>
  
  <!-- Background with texture -->
  <rect width="1200" height="630" fill="url(#heroBg2)"/>
  
  <!-- Decorative hand-drawn circles -->
  <g fill="none" stroke="#fff" stroke-width="3" opacity="0.15">
    <circle cx="120" cy="120" r="70" filter="url(#sketch)"/>
    <circle cx="1080" cy="510" r="85" filter="url(#sketch)"/>
    <path d="M 180 480 Q 200 460 220 480 Q 240 500 220 520 Q 200 540 180 520 Q 160 500 180 480"/>
  </g>
  
  <!-- Hand-drawn paper card -->
  <path d="M 110 140 Q 112 138 320 135 Q 528 138 525 145 L 530 485 Q 527 492 320 495 Q 113 492 115 485 Z" 
        fill="#fffef8" stroke="#e8e4d8" stroke-width="4" opacity="0.95" filter="url(#sketch)"/>
  
  <!-- Game board with sketchy lines -->
  <g stroke="#8B5CF6" stroke-width="6" stroke-linecap="round" fill="none" opacity="0.8">
    <path d="M 210 170 Q 211 260 210 350 Q 209 410 210 460"/>
    <path d="M 330 170 Q 329 260 330 350 Q 331 410 330 460"/>
    <path d="M 150 235 Q 220 234 290 235 Q 360 236 480 235"/>
    <path d="M 150 370 Q 220 371 290 370 Q 360 369 480 370"/>
  </g>
  
  <!-- Hand-drawn game pieces -->
  <!-- X marks -->
  <g stroke="#2dd4bf" stroke-width="8" stroke-linecap="round" fill="none">
    <path d="M 165 185 Q 180 200 188 208 Q 196 216 205 225"/>
    <path d="M 205 185 Q 196 194 188 202 Q 180 210 165 225"/>
    
    <path d="M 345 255 Q 360 270 368 278 Q 376 286 385 295"/>
    <path d="M 385 255 Q 376 264 368 272 Q 360 280 345 295"/>
  </g>
  
  <!-- O marks -->
  <ellipse cx="270" cy="205" rx="28" ry="30" fill="none" stroke="#f472b6" stroke-width="8"/>
  <ellipse cx="180" cy="335" rx="30" ry="28" fill="none" stroke="#f472b6" stroke-width="8"/>
  <ellipse cx="390" cy="440" rx="29" ry="31" fill="none" stroke="#f472b6" stroke-width="8"/>
  
  <!-- Hand-drawn text on right side -->
  <g fill="#ffffff" font-family="Lexend, Arial, sans-serif">
    <text x="600" y="220" font-size="78" font-weight="700">FarTacToe</text>
    <text x="602" y="222" font-size="78" font-weight="700" opacity="0.2">FarTacToe</text>
    
    <text x="600" y="285" font-size="32" font-weight="400" opacity="0.9">Classic Tic-Tac-Toe</text>
    
    <text x="600" y="350" font-size="24" font-weight="400" opacity="0.85">✨ Play against CPU</text>
    <text x="600" y="390" font-size="24" font-weight="400" opacity="0.85">🎮 Medium difficulty</text>
    <text x="600" y="430" font-size="24" font-weight="400" opacity="0.85">📊 Track your wins</text>
  </g>
  
  <!-- Hand-drawn button -->
  <path d="M 600 465 Q 602 463 700 462 Q 798 463 795 468 L 797 505 Q 795 510 700 512 Q 605 510 603 505 Z" 
        fill="#fff" opacity="0.25" stroke="#fff" stroke-width="2"/>
  <text x="700" y="495" font-family="Lexend, Arial, sans-serif" font-size="22" font-weight="600" fill="#fff" text-anchor="middle">
    Play Now
  </text>
  
  <!-- Doodle elements -->
  <g stroke="#fde047" stroke-width="3" fill="none" opacity="0.5">
    <path d="M 550 160 L 560 175 M 555 165 L 570 165"/>
    <circle cx="1050" cy="200" r="15"/>
  </g>
</svg>

