<svg xmlns="http://www.w3.org/2000/svg" width="200" height="200" viewBox="0 0 200 200">
  <defs>
    <linearGradient id="splashBg2" x1="0%" y1="0%" x2="100%" y2="100%">
      <stop offset="0%" style="stop-color:#9370db;stop-opacity:1" />
      <stop offset="100%" style="stop-color:#ba55d3;stop-opacity:1" />
    </linearGradient>
  </defs>
  
  <!-- Background -->
  <rect width="200" height="200" rx="35" fill="url(#splashBg2)"/>
  
  <!-- Hand-drawn board -->
  <path d="M 45 55 Q 46 54 100 53 Q 154 54 153 56 L 154 145 Q 153 147 100 148 Q 47 147 46 145 Z" 
        fill="#fffef8" opacity="0.92"/>
  
  <!-- Sketchy grid -->
  <g stroke="#8B5CF6" stroke-width="3" stroke-linecap="round" fill="none" opacity="0.75">
    <path d="M 75 60 Q 75.5 90 75 120 Q 74.5 135 75 145"/>
    <path d="M 125 60 Q 124.5 90 125 120 Q 125.5 135 125 145"/>
    <path d="M 50 82 Q 75 82.5 100 82 Q 125 81.5 150 82"/>
    <path d="M 50 120 Q 75 119.5 100 120 Q 125 120.5 150 120"/>
  </g>
  
  <!-- Hand-drawn X -->
  <g stroke="#2dd4bf" stroke-width="4" stroke-linecap="round" fill="none">
    <path d="M 55 65 Q 60 70 62.5 72.5 Q 65 75 68 78"/>
    <path d="M 68 65 Q 65 68 62.5 70.5 Q 60 73 55 78"/>
  </g>
  
  <!-- Hand-drawn O -->
  <ellipse cx="100" cy="70" rx="10" ry="11" fill="none" stroke="#f472b6" stroke-width="4"/>
  
  <!-- Small X -->
  <g stroke="#2dd4bf" stroke-width="4" stroke-linecap="round" fill="none" opacity="0.6">
    <path d="M 130 128 L 143 141"/>
    <path d="M 143 128 L 130 141"/>
  </g>
</svg>

